<?xml version="1.0" encoding="utf-8"?>
<!-- Generator: Adobe Illustrator 19.2.1, SVG Export Plug-In . SVG Version: 6.00 Build 0)  -->
<svg version="1.1" id="layer" xmlns="http://www.w3.org/2000/svg" xmlns:xlink="http://www.w3.org/1999/xlink" x="0px" y="0px"
	 viewBox="0 0 652 652" style="enable-background:new 0 0 652 652;" xml:space="preserve">
<style type="text/css">
	.st0{fill:#F18630;}
	.st1{fill:#FFFFFF;}
</style>
<path class="st0" d="M626,425.3c0,15.4-12.6,28-28,28H54c-15.4,0-28-12.6-28-28V227c0-15.4,12.6-28,28-28h544.1
	c15.4,0,28,12.6,28,28V425.3z"/>
<path class="st1" d="M154.5,366.5v-19.2c-1.6-13.3-9.9-21.1-24.9-23.4c-19,1.5-29.7,11.4-32.1,29.6c0.8,22.2,11.5,33.6,32.1,34.4
	C144.6,385.5,152.9,378.4,154.5,366.5 M187.8,237.2v178h-33.2v-9.5c-8.9,6.3-17.6,9.5-26.1,9.5c-18.2,0-32.6-5.9-43.3-17.8
	c-10.7-11.9-16-25.7-16-41.6s5.3-29.7,16-41.6c10.7-11.9,25.1-17.8,43.3-17.8c11.9,0.8,20.6,4,26.1,9.6v-69L187.8,237.2z"/>
<path class="st1" d="M285.2,373v-76.7h33.2v118.8h-33.2v-10.8c-8,7.1-17.5,10.7-28.5,10.7c-15,0-26.5-4.6-34.4-13.7
	c-7.9-9.1-11.9-19.6-11.9-31.5v-73.6h33.2v65.3c0,7.9,2,14.1,5.9,18.4c4,4.3,9.9,6.6,17.9,6.9C274.4,386.4,280.3,381.8,285.2,373"/>
<path class="st1" d="M423.2,366.5v-19.2c-1.6-13.3-9.9-21.1-24.9-23.4c-19,1.5-29.7,11.4-32.1,29.6c0.8,22.2,11.5,33.6,32.1,34.4
	C413.3,385.5,421.6,378.4,423.2,366.5 M456.4,237.2v178h-33.2v-9.5c-8.9,6.3-17.6,9.5-26.1,9.5c-18.2,0-32.6-5.9-43.3-17.8
	c-10.7-11.9-16-25.7-16-41.6s5.3-29.7,16-41.6c10.7-11.9,25.1-17.8,43.3-17.8c11.9,0.8,20.6,4,26.1,9.6v-69L456.4,237.2z"/>
<path class="st1" d="M549.8,379.6v-13.4c-3.2-6.1-10.7-9.1-22.6-9.1c-14.2,1.6-21.8,7.1-22.6,16.6c0.8,9.4,8.3,14.5,22.6,15.3
	C539.1,388.9,546.6,385.8,549.8,379.6 M484.5,310.7c15-9.5,32.5-14.2,52.2-14.2c14.2,0,25.5,4,33.8,11.9
	c8.3,7.9,12.5,19.8,12.5,35.6v71.2h-33.2v-9.5c-9.7,6.3-18.4,9.5-26.1,9.5c-15.8,0-27.7-3.4-35.6-10.1c-7.9-6.7-11.9-16-11.9-27.9
	c0-11.1,3.7-21,11.2-29.7c7.5-8.7,19.6-13.1,36.3-13.1c7.7,0,16.4,2.4,26.1,7.1V338c-0.2-8.7-6.5-13.5-19-14.3
	c-14.2,0-25.3,2.4-33.2,7.1L484.5,310.7z"/>
</svg>
