<?xml version="1.0" encoding="utf-8"?>
<!-- Generator: Adobe Illustrator 25.4.1, SVG Export Plug-In . SVG Version: 6.00 Build 0)  -->
<svg version="1.1" id="Layer_1" xmlns="http://www.w3.org/2000/svg" xmlns:xlink="http://www.w3.org/1999/xlink" x="0px" y="0px"
	 viewBox="0 0 245 130" style="enable-background:new 0 0 245 130;" xml:space="preserve">
<style type="text/css">
	.st0{fill:#232930;}
	.st1{fill:#FF7E5C;}
</style>
<g>
	<path class="st0" d="M112.56,94.46h13.98c0.66,0,1.2-0.54,1.2-1.2V39.94c0-0.66-0.54-1.2-1.2-1.2h-13.98c-0.66,0-1.2,0.54-1.2,1.2
		v53.33C111.37,93.93,111.9,94.46,112.56,94.46z"/>
	<path class="st0" d="M33.47,66.1l26.14-26.14c0.45-0.45,0.13-1.23-0.51-1.23H37.98c-0.19,0-0.37,0.08-0.51,0.21L23.86,52.55
		l0-35.75c0-0.51-0.52-0.86-0.99-0.67L7.93,22.18c-0.27,0.11-0.45,0.37-0.45,0.67v70.41c0,0.66,0.54,1.2,1.2,1.2h13.98
		c0.66,0,1.2-0.54,1.2-1.2V79.65l14.62,14.61c0.13,0.13,0.32,0.21,0.51,0.21l21.13-0.01c0.64,0,0.96-0.78,0.51-1.23L33.47,66.1z"/>
	<path class="st0" d="M237.45,64.6c-0.96-13.73-12.09-24.86-25.83-25.8c-16.28-1.12-29.82,11.75-29.82,27.8h-0.01v49.8
		c0,0.52,0.52,0.86,0.99,0.67l14.64-5.93c0.46-0.18,0.75-0.62,0.75-1.11V91.98c3.5,1.59,7.39,2.49,11.49,2.49
		C225.7,94.46,238.58,80.9,237.45,64.6z M209.66,78.09c-6.35,0-11.49-5.15-11.49-11.49c0-6.34,5.14-11.49,11.49-11.49
		c6.34,0,11.48,5.15,11.48,11.49C221.14,72.94,216,78.09,209.66,78.09z"/>
	<path class="st0" d="M155.35,52.16c0.05,0,0.11,0,0.16,0.01c2.69-0.11,5.11,1.61,7.08,4.3c0.32,0.44,0.9,0.59,1.4,0.39l11.26-4.53
		c0.62-0.25,0.92-0.96,0.66-1.58c-2.83-6.82-11.44-12.01-20.57-12.01c-11.92,0-21.6,7.58-21.6,16.93c0,5.01,2.92,9.36,6.93,12.2
		c3.6,2.55,7.9,4.2,12.14,5.3c0.14,0.04,0.28,0.07,0.42,0.11c5.72,1.27,6.54,2.78,6.54,4.27c0,1.94-2.35,3.51-5.24,3.51
		c-2.99,0.19-5.64-1.86-7.72-4.98c-0.31-0.47-0.92-0.64-1.44-0.43l-11.13,4.56c-0.61,0.25-0.89,0.93-0.66,1.55
		c3.19,8.64,11.79,12.72,20.95,12.72c11.92,0,21.6-7.57,21.6-16.93c0-2.04-0.46-3.99-1.31-5.8c-0.81-1.73-2.92-5.41-8.38-7.96
		c-3.12-1.45-11.77-4-14.74-5.64c-1.02-0.56-1.6-1.49-1.6-2.48C150.1,53.73,152.46,52.16,155.35,52.16z"/>
	<circle class="st1" cx="119.55" cy="23.07" r="10.19"/>
	<path class="st0" d="M104.92,38.74c0.51,0,0.86,0.52,0.67,0.99l-6.13,14.93c-0.11,0.27-0.37,0.44-0.66,0.44h-4.42
		c-6.32,0-11.44,5.12-11.44,11.44v26.73c0,0.66-0.53,1.19-1.19,1.19H67.77c-0.66,0-1.2-0.54-1.2-1.2V66.54
		c0-15.35,12.45-27.8,27.8-27.8H104.92z"/>
</g>
</svg>
