<?xml version="1.0" encoding="utf-8"?>
<!-- Generator: Adobe Illustrator 25.3.0, SVG Export Plug-In . SVG Version: 6.00 Build 0)  -->
<svg version="1.1" id="layer" xmlns="http://www.w3.org/2000/svg" xmlns:xlink="http://www.w3.org/1999/xlink" x="0px" y="0px"
	 viewBox="0 0 237.7 62.6" style="enable-background:new 0 0 237.7 62.6;" xml:space="preserve">
<style type="text/css">
	.st0{fill:#353238;}
	.st1{fill:#333333;}
</style>
<path class="st0" d="M56.4,37.8c-0.5,6.1-5.7,10.8-11.9,10.8h-6.7l-12.3,8.1v-8.1l12.5-8.1h6.7c1.9,0,3.5-1.4,3.7-3.3
	c0.4-6.2,0.3-12.4,0-18.8c-0.2-1.7-1.6-3.1-3.3-3.1c-8.8-0.6-17.6-0.6-26.4,0c-1.8,0-3.2,1.4-3.3,3.2c-0.4,6.2-0.4,12.4,0,18.6
	c0.2,1.9,1.8,3.3,3.7,3.3h6.7v8.1H19C12.8,48.7,7.7,44,7.1,37.8c-0.4-6.7-0.4-13.3,0-20c0.5-5.7,5-10.2,10.8-10.7
	c9.2-0.7,18.5-0.7,27.7,0c5.7,0.5,10.2,5,10.7,10.7C56.7,24.5,56.9,31.2,56.4,37.8L56.4,37.8z"/>
<path class="st1" d="M69.2,42.3h19.6v-4.8H75.2V12.6h-6v29.7V42.3z M91.6,42.3h5.8V20.4h-5.8v22.1V42.3z M91.2,14.5
	c0.2,4.4,6.9,4.1,6.7-0.3S90.9,10.1,91.2,14.5L91.2,14.5z M120,20.3h-5.8l-4.8,16.2l-4.7-16.2h-5.9l7.4,22.1h6l7.5-22.1L120,20.3
	L120,20.3z M130.3,42.8c4.9,0,8.9-2.9,9.5-6.9h-5c-0.6,1.6-2.1,2.8-4.6,2.8c-3.3,0-4.7-2.2-4.7-4.9v-0.4h14.4v-3.8
	c0-5.3-3.3-9.8-9.9-9.8s-10.1,4.3-10.1,10.3v3c0,6.1,4,9.8,10.2,9.8V42.8z M125.7,29.1c0-3,1.2-5.2,4.6-5.2c3.1,0,4.6,2.1,4.6,4.9
	v0.6h-9.1v-0.3V29.1z M155.5,42.9c7.4,0,12-5.1,12.3-11.1h-5.5c-0.3,3.3-2.4,6.2-6.9,6.2c-5,0-7.1-3.3-7.1-8.1v-4.9
	c0-4.8,2.2-8.1,7.1-8.1c4.4,0,6.5,2.9,6.9,6.2h5.5c-0.3-6-4.9-11.1-12.4-11.1c-8.9,0-13,5.7-13,13.3v4.2c0,7.7,4,13.3,13,13.3H155.5
	z M171.1,42.3h5.7V29.4c0-3,1.7-4.4,4.3-4.4c2.8,0,4,1.8,4,4.3v13h5.8v-14c0-5.2-3-8.5-7.8-8.5c-2.9,0-5.1,1.3-6.3,3.2V11.4h-5.7
	V42.3z M201.8,42.8c2.6,0,5.3-1.1,6.3-2.6v2.1h5.5V28.3c0-5.1-3.7-8.5-9.2-8.5c-4.8,0-8.2,2.3-9.4,6.7h5.3c0.6-1.2,1.8-2.1,3.8-2.1
	c2.4,0,3.9,1.6,3.9,3.6v3c-1.6-1.3-3.6-1.9-5.7-1.9c-5.3,0-8.9,2.2-8.9,7C193.5,40.4,196.8,42.8,201.8,42.8L201.8,42.8z M203.4,39
	c-2.4,0-4.3-1.1-4.3-3.3c0-1.9,1.8-3,4.4-3c2.6,0,4.4,1.1,4.4,3.1C207.9,37.8,205.8,39,203.4,39L203.4,39z M224.6,42.3h4v-4.4h-2.3
	c-1.6,0-2.2-0.7-2.2-2.1V25.1h4.8v-4.7h-4.7v-6.1h-5.8v6h-3.1v4.7h3.1V36c0,3.9,2,6.3,6.2,6.3L224.6,42.3L224.6,42.3z"/>
</svg>
