<?xml version="1.0" encoding="utf-8"?>
<!-- Generator: Adobe Illustrator 25.0.1, SVG Export Plug-In . SVG Version: 6.00 Build 0)  -->
<svg version="1.0" id="Layer_1" xmlns="http://www.w3.org/2000/svg" xmlns:xlink="http://www.w3.org/1999/xlink" x="0px" y="0px"
	 viewBox="0 0 894 520.2" style="enable-background:new 0 0 894 520.2;" xml:space="preserve">
<style type="text/css">
	.st0{fill:#614DFF;}
	.st1{fill:#0E143E;}
	.st2{fill:none;}
</style>
<path class="st0" d="M145.6,170.4c2.3-0.2,4.6-0.7,6.9-0.4c2.8,0,5.7,0.1,8.5-0.1c11.6,0.7,22.9,3.9,33.2,9.3
	c10.2,5.4,19.1,12.8,26.2,21.8c1.2,1.4,2.2,2.9,3.2,4.4c-12,4.6-24,9.4-36,14.1c-3,1.1-5.9,2.3-8.7,3.7c-14.6,8-19.9,26.2-11.9,40.8
	c2.6,4.8,6.5,8.7,11.2,11.5c11.8,7,26.9,5.1,36.6-4.7c3.8-3.7,6.3-8.5,7.3-13.6c1.5-7.3,0.2-14.9-1.9-22c-1-3.2-2.2-6.4-3.6-9.5
	c0.7-0.4,1.4-0.7,2.2-1c4.3-1.7,8.6-3.3,12.9-5.1c4.7,10.8,7,22.4,6.7,34.2c-0.2,14.1-4.1,27.9-11.2,40c-23,39.4-73.6,52.7-113,29.7
	c-8.4-4.9-15.9-11.3-22.1-18.8c-8-9.7-13.7-21.1-16.6-33.3c-1-4.2-1.6-8.5-2-12.8c0.2-4.2,0.2-8.5,0-12.7c0.7-9.1,2.9-18,6.6-26.4
	c5,2,9.9,4,14.9,5.8c-0.2,0.8-0.4,1.5-0.8,2.3c-2.5,5.9-4.2,12.2-5,18.6c-0.7,7,0.4,14.4,4.3,20.4c7.7,11.1,21.8,15.8,34.6,11.3
	c7-2.5,12.8-7.4,16.4-13.9c3-5.5,4.3-11.8,3.6-18c-1.2-9.8-7-18.3-15.6-23c-1.9-1-3.9-1.8-5.9-2.6c-12.8-5-25.7-10.1-38.6-15.1
	c3.2-4.7,6.9-9.1,11-13C111.6,180.3,128,172.6,145.6,170.4 M136.4,188.9c-7.7,2.4-15,6.2-21.3,11.2c6.8,2.8,13.7,5.4,20.5,8.1
	c8.1,3.4,15.1,9.2,20,16.6h0.3c5.4-8.1,13.2-14.2,22.3-17.5c6.1-2.4,12.2-4.8,18.2-7.2c-0.5-0.5-1.1-1-1.8-1.4
	C177.9,186.4,156.3,182.8,136.4,188.9 M151.2,280.3c1.6,1.4,2.9,3.1,4.5,4.4c1.6-1.3,3-3,4.5-4.4c-1.6-1.8-3.1-3.8-4.5-5.8
	C154.3,276.5,152.8,278.5,151.2,280.3 M117.8,294.8c-5.4,0-10.8-1-15.9-2.9c7.4,9.8,17.2,17.4,28.5,22c16,6.5,33.8,6.6,49.8,0.3
	c11.6-4.6,21.7-12.3,29.2-22.3c-5.1,1.9-10.5,2.9-15.9,2.9c-7,0-13.9-1.5-20.1-4.6c-5.7,5.8-11.5,11.5-17.2,17.2
	c-0.2,0.3-0.7,0.6-0.9,0.2c-5.8-5.8-11.6-11.6-17.4-17.4C131.7,293.3,124.8,294.8,117.8,294.8 M114.4,228.1
	c11.9-2.1,23.3,5.9,25.4,17.8c0.5,2.8,0.4,5.7-0.2,8.5c-2.6,11.8-14.2,19.4-26.1,16.8s-19.4-14.2-16.8-26.1
	C98.6,236.3,105.6,229.6,114.4,228.1 M116.7,244.4c-2.9,0.9-4.6,3.9-3.8,6.9c0.9,2.9,3.9,4.6,6.9,3.8c2.5-0.7,4.1-3,4-5.6
	c-0.2-3.1-2.9-5.5-6-5.2C117.4,244.2,117,244.3,116.7,244.4 M189.5,228.1c11.9-2.1,23.3,5.9,25.4,17.9c2.1,11.9-5.9,23.3-17.9,25.4
	c-2.7,0.5-5.5,0.4-8.2-0.1c-11.9-2.4-19.5-14-17.1-25.9C173.6,236.4,180.6,229.6,189.5,228.1 M191.7,244.3c-3,0.8-4.7,3.9-3.9,6.8
	c0.8,3,3.9,4.7,6.8,3.9c2.6-0.7,4.4-3.3,4-6c-0.4-3.1-3.2-5.2-6.2-4.9C192.2,244.2,192,244.3,191.7,244.3z"/>
<path class="st1" d="M685.7,207.9c0-10-0.1-19.9,0-29.8c9.6,0,19.1,0,28.7,0c0,47.1,0,94.1,0,141.1c-9.6,0-19.2,0-28.8,0
	C685.7,282.1,685.7,245,685.7,207.9 M269.5,185.5H314c6.9-0.1,13.7,0.8,20.3,2.7c10,2.9,19.2,8.7,25.3,17.2
	c6.7,9.1,9.3,20.7,8.9,31.9c-0.2,10.8-4,21.3-10.6,29.8c-6.7,8.2-15.7,14.1-25.9,16.9c-6.5,1.8-13.1,2.7-19.9,2.6h-12.7v32.7h-29.8
	V185.5 M299.4,211.5c0,16.6,0,33.3,0,49.9c4.5,0,8.9,0.1,13.4-0.1c6.2-0.3,12.8-1.6,17.7-5.8c4.3-3.6,6.4-9.3,6.9-14.8
	c0.6-6.4,0-13.2-3.4-18.8c-2.8-4.3-7-7.5-12-8.9C314.6,210.9,306.8,211.7,299.4,211.5 M484.8,223.4c11.7-0.4,24,1.9,33.7,9
	c8.6,6.1,14.2,15.7,16.4,25.9c1.8,8.3,2,16.9,0.5,25.3c-1.8,10.3-6.8,20.1-14.8,26.9c-8.6,7.4-20.1,10.7-31.3,11s-22.9-1.8-32.3-8
	c-4.5-3-8.4-6.9-11.4-11.5c-3.9-6.1-6.3-13-7.2-20.1c-1.1-8-0.7-16.1,1.1-23.9c1.8-7.3,5.3-14,10.3-19.6
	c6.6-7.1,15.3-11.9,24.8-13.7C478,223.8,481.4,223.4,484.8,223.4 M484,247c-5.8,0.8-10.9,4.3-13.7,9.4c-3.5,6-4.1,13.3-3.5,20.1
	c0.6,6.2,2.8,12.7,7.7,16.9c5.3,4.6,13.1,5.6,19.6,3.5c4.6-1.6,8.3-4.9,10.4-9.2c2.9-5.8,3.5-12.5,3.1-18.9s-2.6-12.8-7.4-17.2
	C496,247.6,489.7,246.2,484,247 M413.6,229c6.1-3.7,13.2-5.5,20.4-5.3c-0.1,10.2,0,20.3,0,30.5c-10,0-19.9,2.8-29,7
	c-0.2,9,0,18-0.1,27c0,10.3,0,20.7,0,31c-9.6,0-19.2,0-28.8,0c0-31.2,0-62.3,0-93.5c7.3-0.2,14.6,0,21.9-0.1c2,4,4,8,6,11.9
	C406.7,234.2,409.9,231.3,413.6,229 M533.2,225.6c9.9,0.1,19.8,0,29.7,0c0.4,0.4,0.3,1,0.5,1.5c3.9,15,7.7,30,11.6,45.1
	c0.7,2.5,1.2,5.1,2,7.5c5.5-13.6,11.1-27.2,16.6-40.8c1.8-4.4,3.6-8.9,5.5-13.3c5.2,0.1,10.5,0,15.8,0c7.7,18.2,15.4,36.5,23.2,54.8
	c4.8-18.3,9.5-36.5,14.3-54.8c9.3,0,18.5,0,27.8,0c-9.1,31.2-18.3,62.4-27.4,93.5c-8.1,0-16.2,0.1-24.3,0c-5.6-13-11.3-26-16.9-39
	c-2-4.6-3.9-9.2-6-13.8c-7.3,17.6-14.8,35.2-22.1,52.9c-8,0-16,0.1-23.9,0c-8.8-31.2-17.8-62.3-26.6-93.5 M719.2,225.7
	c10.5,0.1,21,0,31.5,0.1c7.1,20.7,14.2,41.3,21.4,62c6.8-20.7,13.5-41.4,20.3-62c9.4,0,18.9,0,28.3,0l0,0c-0.8,1.7-1.6,3.5-2.2,5.4
	c-15.7,39.7-31.3,79.5-47,119.2h-28.6c4.4-11.1,8.8-22.3,13.3-33.5c0.1-0.5,0.5-0.9,0.2-1.4C744,285.5,731.5,255.6,719.2,225.7
	L719.2,225.7z"/>
<rect x="53" y="151.2" class="st2" width="788" height="217.8"/>
</svg>
