<?xml version="1.0" encoding="utf-8"?>
<!-- Generator: Adobe Illustrator 19.2.1, SVG Export Plug-In . SVG Version: 6.00 Build 0)  -->
<svg version="1.1" id="layer" xmlns="http://www.w3.org/2000/svg" xmlns:xlink="http://www.w3.org/1999/xlink" x="0px" y="0px"
	 viewBox="0 0 652 652" style="enable-background:new 0 0 652 652;" xml:space="preserve">
<style type="text/css">
	.st0{fill:#414042;}
</style>
<path class="st0" d="M20.2,363l11.4-13.6c7.9,6.5,16.1,10.6,26.1,10.6c7.8,0,12.6-3.1,12.6-8.3v-0.2c0-4.9-3-7.4-17.7-11.1
	c-17.6-4.5-28.9-9.4-28.9-26.7v-0.2c0-15.9,12.7-26.3,30.5-26.3c12.7,0,23.6,4,32.5,11.1l-10,14.4c-7.8-5.3-15.4-8.6-22.7-8.6
	s-11.2,3.4-11.2,7.6v0.3c0,5.8,3.7,7.6,18.8,11.5c17.8,4.6,27.8,11,27.8,26.2v0.2c0,17.3-13.3,27.1-32.1,27.1
	C44,376.9,30.6,372.4,20.2,363 M94.8,356.7V325h-7.9v-16.2h7.9v-17h19v17.1h15.7v16.2h-15.7v28.5c0,4.4,1.9,6.5,6.1,6.5
	c3.5,0,6.6-0.8,9.4-2.3V373c-4,2.4-8.7,3.9-15,3.9c-11.6,0-19.5-4.6-19.5-20.1 M175.8,352.1v-3.4c-3.2-1.4-7.5-2.5-12.1-2.5
	c-8.1,0-13.1,3.2-13.1,9.3v0.2c0,5.1,4.3,8.1,10.4,8.1C169.8,363.8,175.8,359,175.8,352.1 M132.2,356.4v-0.2
	c0-14.6,11.1-21.3,27-21.3c6.7,0,11.5,1.1,16.3,2.7v-1.1c0-7.9-4.9-12.3-14.4-12.3c-7.2,0-12.4,1.4-18.5,3.6l-4.7-14.4
	c7.3-3.2,14.5-5.4,25.9-5.4c10.4,0,17.9,2.7,22.6,7.5c5,5,7.2,12.3,7.2,21.3v38.9h-18.3v-7.2c-4.6,5.1-11,8.4-20.2,8.4
	C142.6,376.9,132.2,369.7,132.2,356.4 M196.8,342.6v-0.3c0-19.1,14.6-34.8,35.1-34.8c12.6,0,20.4,4.3,26.7,11.3l-11.7,12.5
	c-4.2-4.5-8.5-7.4-15.2-7.4c-9.5,0-16.2,8.4-16.2,18.2v0.2c0,10.2,6.6,18.5,17,18.5c6.4,0,10.8-2.7,15.4-7.1L259,365
	c-6.5,7.1-14,12.3-27.3,12.3C211.6,377.3,196.8,361.7,196.8,342.6"/>
<path class="st0" d="M262.1,284.6H281v48.5l22.3-24.3H326l-25.5,26.3l26.3,40.5h-21.9l-17.1-27.5l-6.7,7.1v20.3h-18.9L262.1,284.6z
	 M330.1,284.6h19v91.1h-19V284.6z M396.2,352.1v-3.4c-3.2-1.4-7.5-2.5-12.1-2.5c-8.1,0-13.1,3.2-13.1,9.3v0.2
	c0,5.1,4.2,8.1,10.4,8.1C390.2,363.8,396.2,359,396.2,352.1 M352.7,356.4v-0.2c0-14.6,11.1-21.3,27-21.3c6.7,0,11.6,1.1,16.3,2.7
	v-1.1c0-7.9-4.9-12.3-14.3-12.3c-7.3,0-12.4,1.4-18.5,3.6l-4.8-14.4c7.4-3.2,14.6-5.4,26-5.4c10.4,0,17.8,2.7,22.6,7.5
	c5.1,5,7.2,12.3,7.2,21.3v38.9h-18.3v-7.2c-4.6,5.1-11,8.4-20.2,8.4C363,376.9,352.7,369.7,352.7,356.4"/>
<path class="st0" d="M558.1,285c6.8,3.6,12.3,1.2,12.3-5.3v-14l49.8,67.3l-49.8,17v-8.6c0-9.6-6.1-17.9-14-22.2l-34.1-17.7
	c-7.6-4-10.7-13.3-6.9-20.9c4-7.7,13.3-10.7,21.1-6.8L558.1,285L558.1,285z M495,356.4c-6.8-3.5-12.3-1.1-12.3,5.4v13.9l-49.8-67.3
	l49.8-17v8.6c0,9.6,6.1,17.9,14,22.1l34.1,17.7c7.6,4,10.7,13.3,6.8,21c-4,7.6-13.3,10.6-21,6.7L495,356.4L495,356.4z"/>
</svg>
