<?xml version="1.0" encoding="utf-8"?>
<!-- Generator: Adobe Illustrator 25.3.0, SVG Export Plug-In . SVG Version: 6.00 Build 0)  -->
<svg version="1.1" id="Layer_1" xmlns="http://www.w3.org/2000/svg" xmlns:xlink="http://www.w3.org/1999/xlink" x="0px" y="0px"
	 viewBox="0 0 156.6 30" style="enable-background:new 0 0 156.6 30;" xml:space="preserve">
<style type="text/css">
	.st0{fill:#353238;}
	.st1{fill:#03363D;}
</style>
<path class="st0" d="M104.2,25.9c2.1,0.1,4.1-0.7,5.6-2.2l2.8,3c-1.8,1.9-4.4,3.3-8.3,3.3c-6.8,0-11.1-4.5-11.1-10.6
	c0-6,4.6-10.6,10.5-10.6c6.7,0,10.5,5.1,10.2,12.2H97.9C98.5,24,100.6,25.9,104.2,25.9 M109,17.7c-0.4-2.7-2.1-4.8-5.3-4.8
	c-3.1,0-5.2,1.7-5.7,4.8H109L109,17.7z M0,25.7l12.2-12.4H0.3V9.4h17.6v4L5.7,25.8H18v3.9H0V25.7z M31.7,25.9
	c2.1,0.1,4.1-0.7,5.6-2.2l2.8,3c-1.8,1.9-4.4,3.3-8.3,3.3c-6.7,0-11.1-4.5-11.1-10.6c0-6,4.6-10.6,10.5-10.6
	c6.7,0,10.5,5.1,10.2,12.2H25.5C26.1,24,28.1,25.9,31.7,25.9 M36.6,17.7c-0.4-2.7-2.1-4.8-5.3-4.8c-3.1,0-5.2,1.7-5.7,4.8H36.6
	L36.6,17.7z M67.7,19.5c0-6.5,4.8-10.5,10.2-10.5c2.7,0,5.2,1.2,6.7,3V0H89v29.6h-4.3v-2.8c-1.6,2-4.1,3.2-6.8,3.2
	C72.7,30,67.7,25.9,67.7,19.5 M84.9,19.4c0-3.6-2.7-6.6-6.4-6.6c-3.6,0-6.4,2.9-6.4,6.6s2.8,6.6,6.4,6.6
	C82.2,26,84.9,23.1,84.9,19.4 M116.6,25.3l3.9-2c1.1,1.9,3.1,3,5.2,3c2.4,0,3.7-1.3,3.7-2.7c0-1.6-2.4-2-4.9-2.5c-3.5-0.7-7-1.9-7-6
	c0-3.2,3.1-6.2,7.9-6.1c3.8,0,6.6,1.5,8.2,3.9l-3.6,2c-0.9-1.4-2.5-2.3-4.6-2.3c-2.3,0-3.5,1.1-3.5,2.4c0,1.5,1.9,1.9,4.8,2.5
	c3.3,0.7,7.1,1.8,7.1,6c0,2.8-2.4,6.6-8.2,6.5C121.3,30,118.3,28.3,116.6,25.3 M145.4,20.6l-3.4,3.7v5.3h-4.3V0h4.3v19.4l9.2-10h5.2
	l-7.9,8.7l8.2,11.6h-4.9L145.4,20.6z M54.7,8.9c-5.1,0-9.4,3.3-9.4,8.8v11.9h4.4V18.3c0-3.3,1.9-5.3,5.2-5.3s4.9,2,4.9,5.3v11.3h4.4
	V17.8C64.1,12.2,59.8,8.9,54.7,8.9"/>
<path class="st1" d="M1295.8-116.5c9.5-9.5,25.4-9.5,34.9,0c9.5,9.5,9.5,25.4,0,34.9c-9.5,9.5-25.4,9.5-34.9,0
	C1285.8-91,1285.8-106.5,1295.8-116.5z M1326.3-85.5c7.1-7.5,6.8-19.5-0.4-26.6c-7.5-7.1-19.5-6.8-26.6,0.4
	c-7.1,7.5-7.1,19.1,0.4,26.2C1307.3-77.9,1319.2-78.3,1326.3-85.5z M1315.2-114.9l7.5,7.5c4.8,4.8,4.8,10.3,1.6,13.5
	c-2.4,2.8-6.4,3.6-9.5,2l-2.4,9.5l-5.2-5.2l3.6-13.1l2,2c1.2,1.6,4,2,5.6,0.8l0.4-0.4c1.6-1.6,1.2-4.4-0.4-5.6l-0.4-0.4l-2.8-2.8
	L1301.3-93l-4.4-4.4L1315.2-114.9L1315.2-114.9z"/>
</svg>
